<?xml version="1.0" standalone="no"?>
<!DOCTYPE svg PUBLIC "-//W3C//DTD SVG 20010904//EN"
 "http://www.w3.org/TR/2001/REC-SVG-20010904/DTD/svg10.dtd">
<svg version="1.0" xmlns="http://www.w3.org/2000/svg"
 width="710.000000pt" height="599.000000pt" viewBox="0 0 710.000000 599.000000"
 preserveAspectRatio="xMidYMid meet">

<g transform="translate(0.000000,599.000000) scale(0.100000,-0.100000)"
fill="#000000" stroke="none">
<path d="M2920 5710 c-480 -38 -905 -317 -1233 -808 -220 -331 -341 -716 -365
-1161 -18 -324 29 -583 146 -804 215 -408 676 -587 1217 -472 278 58 597 225
803 419 48 45 100 92 115 103 15 12 60 63 100 115 176 228 375 394 605 504
229 111 472 161 727 151 180 -7 283 -37 406 -119 218 -144 284 -419 182 -758
-127 -427 -545 -722 -1071 -756 -88 -6 -102 -5 -108 9 -3 9 2 58 11 109 9 51
20 118 25 148 5 30 13 80 19 110 5 30 24 136 41 235 16 99 40 230 52 290 11
61 21 152 22 203 1 94 1 94 -32 123 -55 49 -132 40 -350 -39 -74 -27 -76 -30
-51 -87 18 -42 21 -60 15 -124 -5 -67 -26 -202 -56 -368 -6 -29 -14 -77 -20
-105 -5 -29 -16 -91 -25 -138 -21 -113 -33 -178 -45 -247 -5 -31 -14 -61 -20
-67 -25 -25 -278 88 -394 176 -38 29 -75 57 -82 63 -22 16 -27 -2 -28 -88 -1
-66 3 -90 21 -122 48 -90 161 -164 336 -220 67 -22 103 -39 105 -49 4 -19 -4
-69 -48 -308 -9 -51 -51 -287 -70 -393 -5 -27 -18 -99 -29 -160 -83 -467 -88
-499 -68 -540 13 -26 24 -35 52 -41 76 -14 195 11 318 68 64 29 68 34 62 57
-15 61 -17 137 -6 209 13 82 87 496 121 672 11 58 31 166 45 240 14 74 28 143
31 153 5 15 19 17 107 17 443 2 841 162 1156 465 296 285 428 594 408 954 -16
276 -132 467 -351 574 -76 38 -135 57 -261 83 -100 22 -492 26 -597 6 -38 -6
-98 -17 -135 -23 -354 -58 -780 -257 -1006 -467 -26 -25 -78 -87 -114 -136
-282 -387 -682 -616 -1073 -616 -253 0 -449 96 -581 283 -99 140 -140 251
-179 481 -22 134 -8 477 29 686 66 379 262 780 498 1018 194 196 376 282 603
285 111 2 179 -13 275 -58 132 -63 257 -195 342 -361 21 -41 43 -74 50 -74 17
0 99 107 130 170 39 77 44 177 13 249 -52 121 -246 236 -455 270 -92 15 -230
19 -335 11z"/>
</g>
</svg>
